<svg id="visual" viewBox="0 0 960 540" width="960" height="540" xmlns="http://www.w3.org/2000/svg" xmlns:xlink="http://www.w3.org/1999/xlink" version="1.1"><path d="M0 114L22.8 109.2C45.7 104.3 91.3 94.7 137 91.5C182.7 88.3 228.3 91.7 274 91.8C319.7 92 365.3 89 411.2 91.8C457 94.7 503 103.3 548.8 102.7C594.7 102 640.3 92 686 89.3C731.7 86.7 777.3 91.3 823 89.8C868.7 88.3 914.3 80.7 937.2 76.8L960 73L960 0L937.2 0C914.3 0 868.7 0 823 0C777.3 0 731.7 0 686 0C640.3 0 594.7 0 548.8 0C503 0 457 0 411.2 0C365.3 0 319.7 0 274 0C228.3 0 182.7 0 137 0C91.3 0 45.7 0 22.8 0L0 0Z" fill="#002350"></path><path d="M0 57L22.8 57C45.7 57 91.3 57 137 62.2C182.7 67.3 228.3 77.7 274 76.8C319.7 76 365.3 64 411.2 58C457 52 503 52 548.8 55.5C594.7 59 640.3 66 686 71.3C731.7 76.7 777.3 80.3 823 80.3C868.7 80.3 914.3 76.7 937.2 74.8L960 73L960 0L937.2 0C914.3 0 868.7 0 823 0C777.3 0 731.7 0 686 0C640.3 0 594.7 0 548.8 0C503 0 457 0 411.2 0C365.3 0 319.7 0 274 0C228.3 0 182.7 0 137 0C91.3 0 45.7 0 22.8 0L0 0Z" fill="#506287"></path><path d="M0 42L22.8 42.3C45.7 42.7 91.3 43.3 137 48C182.7 52.7 228.3 61.3 274 60.3C319.7 59.3 365.3 48.7 411.2 43.5C457 38.3 503 38.7 548.8 38.3C594.7 38 640.3 37 686 38.8C731.7 40.7 777.3 45.3 823 47.7C868.7 50 914.3 50 937.2 50L960 50L960 0L937.2 0C914.3 0 868.7 0 823 0C777.3 0 731.7 0 686 0C640.3 0 594.7 0 548.8 0C503 0 457 0 411.2 0C365.3 0 319.7 0 274 0C228.3 0 182.7 0 137 0C91.3 0 45.7 0 22.8 0L0 0Z" fill="#9aa8c0"></path><path d="M0 43L22.8 41C45.7 39 91.3 35 137 34.8C182.7 34.7 228.3 38.3 274 37C319.7 35.7 365.3 29.3 411.2 29.7C457 30 503 37 548.8 40C594.7 43 640.3 42 686 41.3C731.7 40.7 777.3 40.3 823 38.3C868.7 36.3 914.3 32.7 937.2 30.8L960 29L960 0L937.2 0C914.3 0 868.7 0 823 0C777.3 0 731.7 0 686 0C640.3 0 594.7 0 548.8 0C503 0 457 0 411.2 0C365.3 0 319.7 0 274 0C228.3 0 182.7 0 137 0C91.3 0 45.7 0 22.8 0L0 0Z" fill="#edf3fb"></path></svg>