<svg id="visual" viewBox="0 0 960 540" width="960" height="540" xmlns="http://www.w3.org/2000/svg" xmlns:xlink="http://www.w3.org/1999/xlink" version="1.1"><rect x="0" y="0" width="960" height="540" fill="#002350"></rect><path d="M0 346L32 349.3C64 352.7 128 359.3 192 374.8C256 390.3 320 414.7 384 409C448 403.3 512 367.7 576 346.5C640 325.3 704 318.7 768 324.2C832 329.7 896 347.3 928 356.2L960 365L960 541L928 541C896 541 832 541 768 541C704 541 640 541 576 541C512 541 448 541 384 541C320 541 256 541 192 541C128 541 64 541 32 541L0 541Z" fill="#FFFFFF" stroke-linecap="round" stroke-linejoin="miter"></path></svg>