<svg id="visual" viewBox="0 0 960 540" width="960" height="540" xmlns="http://www.w3.org/2000/svg" xmlns:xlink="http://www.w3.org/1999/xlink" version="1.1"><rect x="0" y="0" width="960" height="540" fill="#002350"></rect><path d="M0 281L32 285.7C64 290.3 128 299.7 192 320.5C256 341.3 320 373.7 384 366.2C448 358.7 512 311.3 576 283.2C640 255 704 246 768 253.2C832 260.3 896 283.7 928 295.3L960 307L960 541L928 541C896 541 832 541 768 541C704 541 640 541 576 541C512 541 448 541 384 541C320 541 256 541 192 541C128 541 64 541 32 541L0 541Z" fill="#FFFFFF" stroke-linecap="round" stroke-linejoin="miter"></path></svg>